<svg width="1280" height="520" viewBox="0 0 1280 520" fill="none" xmlns="http://www.w3.org/2000/svg">
  <defs>
    <marker id="arrow" viewBox="0 0 10 10" refX="9" refY="5" markerWidth="8" markerHeight="8" orient="auto-start-reverse"><path d="M0 0L10 5L0 10Z" fill="#334155"/></marker>
    <style>.title{font:700 26px Arial,sans-serif;fill:#0f172a}.label{font:700 17px Arial,sans-serif;fill:#1e293b}.small{font:500 13px Arial,sans-serif;fill:#475569}.box{fill:#fff;stroke:#0f172a;stroke-width:2}.svc{fill:#fffdf2;stroke:#eab308;stroke-width:2.5}.obs{fill:#f0fdf4;stroke:#16a34a;stroke-width:2.5}.gw{fill:#ecfeff;stroke:#06b6d4;stroke-width:2.5}.line{stroke:#334155;stroke-width:2.4;marker-end:url(#arrow)}.green{stroke:#16a34a;stroke-width:2.8;marker-end:url(#arrow)}</style>
  </defs>
  <rect width="1280" height="520" fill="#fff"/>
  <text x="44" y="48" class="title">Backend Loglama ve Gözlemlenebilirlik</text>
  <rect x="42" y="82" width="1196" height="354" rx="24" class="box"/>
  <rect x="86" y="222" width="150" height="76" rx="16" class="gw"/><text x="114" y="253" class="label">Gateway</text><text x="100" y="276" class="small">X-Correlation-Id</text>
  <rect x="314" y="132" width="160" height="66" rx="15" class="svc"/><text x="343" y="161" class="label">user-service</text>
  <rect x="314" y="222" width="160" height="66" rx="15" class="svc"/><text x="333" y="251" class="label">order-service</text>
  <rect x="314" y="312" width="160" height="66" rx="15" class="svc"/><text x="326" y="341" class="label">product-service</text>
  <rect x="560" y="222" width="150" height="76" rx="16" class="obs"/><text x="590" y="253" class="label">JSON Logs</text><text x="584" y="276" class="small">access + app logs</text>
  <rect x="790" y="222" width="150" height="76" rx="16" class="obs"/><text x="820" y="253" class="label">Promtail</text><text x="820" y="276" class="small">log collector</text>
  <rect x="1008" y="132" width="150" height="76" rx="16" class="obs"/><text x="1060" y="163" class="label">Loki</text><text x="1032" y="186" class="small">central log store</text>
  <rect x="1008" y="312" width="150" height="76" rx="16" class="obs"/><text x="1038" y="343" class="label">Grafana</text><text x="1038" y="366" class="small">dashboards</text>
  <line x1="236" y1="260" x2="314" y2="165" class="green"/><line x1="236" y1="260" x2="314" y2="255" class="green"/><line x1="236" y1="260" x2="314" y2="345" class="green"/>
  <line x1="474" y1="165" x2="560" y2="250" class="line"/><line x1="474" y1="255" x2="560" y2="260" class="line"/><line x1="474" y1="345" x2="560" y2="276" class="line"/>
  <line x1="710" y1="260" x2="790" y2="260" class="line"/><line x1="940" y1="248" x2="1008" y2="177" class="line"/><line x1="1083" y1="208" x2="1083" y2="312" class="line"/>
  <text x="98" y="336" class="small">Aynı correlation id tüm servis loglarında izlenir</text>
  <text x="566" y="334" class="small">method, path, status, duration, client ip</text>
</svg>
